<?xml version="1.0" encoding="utf-8"?>
<!-- Uploaded to: SVG Repo, www.svgrepo.com, Generator: SVG Repo Mixer Tools -->
<svg width="800px" height="800px" viewBox="0 0 1024 1024" class="icon"  version="1.1" xmlns="http://www.w3.org/2000/svg"><path d="M425.1 640.5l87.2 120.9 87.4-120.9" fill="#EFE2C2" /><path d="M425.1 425.6v214.9h174.6V425.6h-87.3z" fill="#F7BE29" /><path d="M425.1 277.8h174.6v94H425.1z" fill="#F07067" /><path d="M619.9 410.2c0 8.5-6 15.3-13.4 15.3h-188c-7.4 0-13.4-6.9-13.4-15.3v-23c0-8.5 6-15.4 13.4-15.4h188c7.4 0 13.4 6.9 13.4 15.4v23z" fill="#EFE2C2" /><path d="M613.2 359.4v-81.6c0-7.4-6-13.4-13.4-13.4H425.1c-7.4 0-13.4 6-13.4 13.4v81.6c-11.6 3.2-20.1 14.4-20.1 27.8v23c0 13.4 8.6 24.5 20.1 27.8v202.5c0 4.5 2.5 7.8 2.5 7.9l87.2 120.9c2.5 3.5 6.6 5.6 10.9 5.6 4.3 0 8.4-2.1 10.9-5.6l87.4-120.9c0-0.1 2.5-2.7 2.5-7.9V438c11.6-3.2 20.1-14.4 20.1-27.8v-23c0.1-13.4-8.5-24.6-20-27.8z m-90.5 364.7c-3.3-1.2-6.7-1.9-10.1-1.9-4 0-7.5 0.8-10.5 2l-50.7-70.3h122.1l-50.8 70.2zM492.3 627V439h40.3v188h-40.3z m-13.5 0h-40.3V439h40.3v188z m107.5 0H546V439h40.3v188zM418.9 412.1c-0.2-0.3-0.5-0.9-0.5-1.9v-23c0-1 0.3-1.6 0.5-1.9h187c0.2 0.3 0.5 0.9 0.5 1.9v23c0 1-0.3 1.6-0.5 1.9h-187z m19.7-120.9h147.8v67.2H438.6v-67.2z" fill="#211F1E" /></svg>